<?xml version="1.0" encoding="UTF-8"?>
<svg version="1.1" xmlns="http://www.w3.org/2000/svg" width="3000" height="3000">
<path d="M0 0 C4.78297391 0.00460717 9.56569197 -0.00222384 14.34863281 -0.02050781 C116.77090594 -0.40784345 219.43363886 10.14313866 618.16662598 128.42938232 C620.14338013 129.31178156 622.12246031 130.18874571 624.10229492 131.06420898 C643.64616914 139.71652232 662.84320502 149.01758195 681.96459961 158.56567383 C683.05526733 159.10921509 684.14593506 159.65275635 685.26965332 160.21276855 C699.28509883 167.20807049 713.13143918 174.45478299 726.83810425 182.03729248 C728.87172324 183.16077813 730.90883067 184.27729896 732.94921875 185.38842773 C749.26114284 194.27256809 765.17971656 203.67085813 781.00170898 213.39086914 C784.63126988 215.60843409 788.28326158 217.78570696 791.94189453 219.95483398 C821.55674373 237.5349756 850.3199708 256.84600998 878.27124023 276.96313477 C880.31563797 278.4332754 882.36661042 279.89398312 884.41772461 281.35473633 C896.1840955 289.76333957 907.684034 298.50631138 919.15209961 307.31567383 C920.39409232 308.26644917 921.63625712 309.21699979 922.87866211 310.16723633 C925.97762098 312.53999865 929.06694458 314.92497802 932.15209961 317.31567383 C932.68786621 317.73059082 933.22363281 318.14550781 933.77563477 318.57299805 C946.64759626 328.55954168 959.21219102 338.9211337 971.61669922 349.48144531 C974.96589572 352.32876316 978.35776874 355.11566358 981.77709961 357.87817383 C986.53730014 361.75146655 991.08014745 365.82327375 995.59741211 369.97583008 C997.77907775 371.97402231 999.9822127 373.93716272 1002.21459961 375.87817383 C1006.0498933 379.21355144 1009.82880979 382.60875814 1013.60131836 386.01489258 C1015.22537298 387.47977492 1016.85263746 388.94111214 1018.48413086 390.39770508 C1028.53434628 399.38123097 1038.55506074 408.46268459 1047.92944336 418.15551758 C1049.73998266 419.9151454 1051.5745801 421.53450441 1053.49584961 423.16723633 C1059.53339261 428.41292454 1065.11799764 434.13272865 1070.76123047 439.79443359 C1072.7100683 441.74863006 1074.66419233 443.6974253 1076.61889648 445.64575195 C1082.15839303 451.18259662 1087.65185081 456.69846107 1092.72607422 462.67138672 C1095.0599506 465.36247685 1097.60315619 467.8304329 1100.15209961 470.31567383 C1103.96970086 474.08691933 1107.63314752 477.90301337 1111.11303711 481.99145508 C1114.04923984 485.3382762 1117.10530838 488.56966324 1120.15209961 491.81567383 C1124.91756966 496.90263381 1129.62796504 502.01151606 1134.15209961 507.31567383 C1135.02687233 508.33670193 1135.9018966 509.35751454 1136.77709961 510.37817383 C1138.2928865 512.14613002 1139.80816988 513.9145035 1141.32177734 515.68432617 C1144.58791874 519.50131595 1147.87380482 523.30026307 1151.1730957 527.08862305 C1156.95775624 533.73428784 1162.61426105 540.46191323 1168.15209961 547.31567383 C1169.16975522 548.56353763 1170.18802706 549.81089903 1171.20678711 551.05786133 C1177.7844089 559.11566828 1184.28626116 567.2262981 1190.68041992 575.43041992 C1192.26830281 577.46453267 1193.86243724 579.49365797 1195.45678711 581.52270508 C1203.90510452 592.29864437 1212.09215701 603.24690284 1220.15209961 614.31567383 C1220.68657715 615.0472168 1221.22105469 615.77875977 1221.77172852 616.5324707 C1243.74345398 646.62109629 1264.62252903 677.5824341 1284.15209961 709.31567383 C1284.77713379 710.33048828 1285.40216797 711.34530273 1286.04614258 712.39086914 C1308.24026353 748.51061043 1328.89694187 785.40652964 1348.07922363 823.20568848 C1349.14837982 825.30835825 1350.22222288 827.40856628 1351.29760742 829.50805664 C1361.32478166 849.09488323 1370.63114342 868.91040376 1379.42068481 889.08251953 C1381.31738486 893.43041247 1383.250235 897.75910545 1385.22241211 902.07348633 C1426.91291223 993.46999411 1456.69691114 1091.64823178 1479.15209961 1200.31567383 C1479.32570007 1201.17271912 1479.49930054 1202.0297644 1479.67816162 1202.91278076 C1492.81469139 1267.95917434 1501.40181133 1333.80110889 1505.83959961 1400.00317383 C1505.93100723 1401.36505829 1505.93100723 1401.36505829 1506.02426147 1402.75445557 C1507.49044959 1424.87919133 1508.31715853 1446.95404272 1508.35522461 1469.12817383 C1508.35805199 1470.2740799 1508.36087936 1471.41998596 1508.36379242 1472.60061646 C1508.37866396 1478.69411432 1508.3879628 1484.78758936 1508.39233398 1490.88110352 C1508.39666655 1495.78026999 1508.41037081 1500.67925516 1508.43334961 1505.57836914 C1508.90500425 1608.3286756 1498.39405899 1711.27234679 1380.03839111 2110.3302002 C1379.15599188 2112.30695435 1378.27902773 2114.28603453 1377.40356445 2116.26586914 C1368.75125112 2135.80974336 1359.45019149 2155.00677923 1349.90209961 2174.12817383 C1349.35855835 2175.21884155 1348.81501709 2176.30950928 1348.25500488 2177.43322754 C1341.25970295 2191.44867305 1334.01299045 2205.2950134 1326.43048096 2219.00167847 C1325.30699531 2221.03529745 1324.19047448 2223.07240488 1323.0793457 2225.11279297 C1314.19520535 2241.42471706 1304.79691531 2257.34329078 1295.0769043 2273.1652832 C1292.85933935 2276.7948441 1290.68206648 2280.44683579 1288.51293945 2284.10546875 C1270.93279783 2313.72031795 1251.62176346 2342.48354502 1231.50463867 2370.43481445 C1230.03449804 2372.47921219 1228.57379032 2374.53018464 1227.11303711 2376.58129883 C1218.70443387 2388.34766972 1209.96146206 2399.84760822 1201.15209961 2411.31567383 C1200.20132427 2412.55766654 1199.25077365 2413.79983134 1198.30053711 2415.04223633 C1195.92777479 2418.1411952 1193.54279542 2421.2305188 1191.15209961 2424.31567383 C1190.73718262 2424.85144043 1190.32226562 2425.38720703 1189.89477539 2425.93920898 C1179.90823175 2438.81117048 1169.54663974 2451.37576524 1158.98632812 2463.78027344 C1156.13901027 2467.12946994 1153.35210986 2470.52134296 1150.58959961 2473.94067383 C1146.71630689 2478.70087436 1142.64449969 2483.24372166 1138.49194336 2487.76098633 C1136.49375112 2489.94265197 1134.53061072 2492.14578691 1132.58959961 2494.37817383 C1129.254222 2498.21346752 1125.8590153 2501.99238401 1122.45288086 2505.76489258 C1120.98799851 2507.3889472 1119.5266613 2509.01621168 1118.07006836 2510.64770508 C1109.08654247 2520.6979205 1100.00508885 2530.71863496 1090.31225586 2540.09301758 C1088.55262804 2541.90355687 1086.93326902 2543.73815432 1085.30053711 2545.65942383 C1080.05484889 2551.69696683 1074.33504479 2557.28157186 1068.67333984 2562.92480469 C1066.71914337 2564.87364252 1064.77034814 2566.82776655 1062.82202148 2568.7824707 C1057.28517682 2574.32196724 1051.76931237 2579.81542502 1045.79638672 2584.88964844 C1043.10529659 2587.22352482 1040.63734053 2589.76673041 1038.15209961 2592.31567383 C1034.38085411 2596.13327508 1030.56476007 2599.79672174 1026.47631836 2603.27661133 C1023.12949724 2606.21281406 1019.8981102 2609.26888259 1016.65209961 2612.31567383 C1011.56513963 2617.08114387 1006.45625738 2621.79153926 1001.15209961 2626.31567383 C1000.13107151 2627.19044655 999.1102589 2628.06547082 998.08959961 2628.94067383 C996.32164342 2630.45646072 994.55326993 2631.9717441 992.78344727 2633.48535156 C988.96645749 2636.75149296 985.16751037 2640.03737903 981.37915039 2643.33666992 C974.73348559 2649.12133045 968.0058602 2654.77783527 961.15209961 2660.31567383 C959.90423581 2661.33332944 958.65687441 2662.35160128 957.40991211 2663.37036133 C949.35210515 2669.94798312 941.24147534 2676.44983538 933.03735352 2682.84399414 C931.00324077 2684.43187703 928.97411547 2686.02601146 926.94506836 2687.62036133 C916.16912906 2696.06867873 905.2208706 2704.25573123 894.15209961 2712.31567383 C893.42055664 2712.85015137 892.68901367 2713.38462891 891.93530273 2713.93530273 C861.84667715 2735.9070282 830.88533934 2756.78610324 799.15209961 2776.31567383 C798.13728516 2776.94070801 797.1224707 2777.56574219 796.0769043 2778.2097168 C759.957163 2800.40383775 723.0612438 2821.06051609 685.26208496 2840.24279785 C683.15941519 2841.31195404 681.05920716 2842.3857971 678.9597168 2843.46118164 C659.37289021 2853.48835588 639.55736968 2862.79471764 619.38525391 2871.58425903 C615.03736097 2873.48095908 610.70866798 2875.41380921 606.39428711 2877.38598633 C514.99777933 2919.07648645 416.81954165 2948.86048536 308.15209961 2971.31567383 C307.29505432 2971.48927429 306.43800903 2971.66287476 305.55499268 2971.84173584 C240.5085991 2984.97826561 174.66666455 2993.56538555 108.46459961 2998.00317383 C107.10271515 2998.09458145 107.10271515 2998.09458145 105.71331787 2998.18783569 C83.58858211 2999.65402381 61.51373072 3000.48073274 39.33959961 3000.51879883 C38.19369354 3000.52162621 37.04778748 3000.52445358 35.86715698 3000.52736664 C29.77365911 3000.54223817 23.68018408 3000.55153702 17.58666992 3000.5559082 C12.68750345 3000.56024077 7.78851828 3000.57394502 2.8894043 3000.59692383 C-99.86090216 3001.06857847 -202.80457336 2990.55763321 -601.86242676 2872.20196533 C-603.83918091 2871.3195661 -605.81826109 2870.44260195 -607.7980957 2869.56713867 C-627.34196992 2860.91482534 -646.5390058 2851.61376571 -665.66040039 2842.06567383 C-666.75106812 2841.52213257 -667.84173584 2840.97859131 -668.9654541 2840.4185791 C-682.98089961 2833.42327717 -696.82723996 2826.17656467 -710.53390503 2818.59405518 C-712.56752402 2817.47056953 -714.60463145 2816.3540487 -716.64501953 2815.24291992 C-732.95694362 2806.35877957 -748.87551734 2796.96048953 -764.69750977 2787.24047852 C-768.32707066 2785.02291357 -771.97906236 2782.8456407 -775.63769531 2780.67651367 C-805.25254451 2763.09637205 -834.01577158 2743.78533768 -861.96704102 2723.66821289 C-864.01143875 2722.19807226 -866.06241121 2720.73736454 -868.11352539 2719.27661133 C-879.87989628 2710.86800809 -891.37983479 2702.12503628 -902.84790039 2693.31567383 C-904.0898931 2692.36489849 -905.3320579 2691.41434787 -906.57446289 2690.46411133 C-909.67342176 2688.09134901 -912.76274537 2685.70636964 -915.84790039 2683.31567383 C-916.38366699 2682.90075684 -916.91943359 2682.48583984 -917.47143555 2682.05834961 C-930.34339704 2672.07180597 -942.9079918 2661.71021396 -955.3125 2651.14990234 C-958.6616965 2648.30258449 -962.05356952 2645.51568408 -965.47290039 2642.75317383 C-970.23310092 2638.87988111 -974.77594823 2634.80807391 -979.29321289 2630.65551758 C-981.47487854 2628.65732534 -983.67801348 2626.69418494 -985.91040039 2624.75317383 C-989.74569408 2621.41779622 -993.52461058 2618.02258952 -997.29711914 2614.61645508 C-998.92117376 2613.15157273 -1000.54843824 2611.69023551 -1002.17993164 2610.23364258 C-1012.23014706 2601.25011669 -1022.25086152 2592.16866306 -1031.62524414 2582.47583008 C-1033.43578344 2580.71620226 -1035.27038088 2579.09684324 -1037.19165039 2577.46411133 C-1043.22919339 2572.21842311 -1048.81379842 2566.49861901 -1054.45703125 2560.83691406 C-1056.40586909 2558.88271759 -1058.35999311 2556.93392236 -1060.31469727 2554.9855957 C-1065.85419381 2549.44875103 -1071.34765159 2543.93288659 -1076.421875 2537.95996094 C-1078.75575138 2535.26887081 -1081.29895697 2532.80091475 -1083.84790039 2530.31567383 C-1087.66550164 2526.54442833 -1091.3289483 2522.72833429 -1094.80883789 2518.63989258 C-1097.74504062 2515.29307146 -1100.80110916 2512.06168442 -1103.84790039 2508.81567383 C-1108.61337044 2503.72871385 -1113.32376583 2498.61983159 -1117.84790039 2493.31567383 C-1118.72267311 2492.29464573 -1119.59769738 2491.27383312 -1120.47290039 2490.25317383 C-1121.98868728 2488.48521763 -1123.50397066 2486.71684415 -1125.01757812 2484.94702148 C-1128.28371952 2481.13003171 -1131.5696056 2477.33108459 -1134.86889648 2473.54272461 C-1140.65355702 2466.89705981 -1146.31006183 2460.16943442 -1151.84790039 2453.31567383 C-1152.865556 2452.06781003 -1153.88382784 2450.82044862 -1154.90258789 2449.57348633 C-1161.48020968 2441.51567937 -1167.98206194 2433.40504956 -1174.3762207 2425.20092773 C-1175.96410359 2423.16681499 -1177.55823802 2421.13768968 -1179.15258789 2419.10864258 C-1187.6009053 2408.33270328 -1195.78795779 2397.38444482 -1203.84790039 2386.31567383 C-1204.6496167 2385.21835937 -1204.6496167 2385.21835937 -1205.4675293 2384.09887695 C-1227.43925476 2354.01025137 -1248.31832981 2323.04891356 -1267.84790039 2291.31567383 C-1268.47293457 2290.30085938 -1269.09796875 2289.28604492 -1269.74194336 2288.24047852 C-1291.93606431 2252.12073722 -1312.59274265 2215.22481802 -1331.77502441 2177.42565918 C-1332.8441806 2175.32298941 -1333.91802366 2173.22278138 -1334.9934082 2171.12329102 C-1345.02058244 2151.53646443 -1354.3269442 2131.7209439 -1363.1164856 2111.54882812 C-1365.01318564 2107.20093519 -1366.94603578 2102.8722422 -1368.91821289 2098.55786133 C-1411.0130019 2006.2750463 -1440.64460707 1907.24225811 -1488.03540039 1621.00317383 C-1488.11439575 1620.05284271 -1488.19339111 1619.1025116 -1488.27478027 1618.12338257 C-1488.87136102 1610.85858134 -1489.37984745 1603.58983272 -1489.84790039 1596.31567383 C-1489.89115574 1595.65513882 -1489.93441109 1594.99460381 -1489.9789772 1594.31405258 C-1491.84200068 1565.70193187 -1492.19343833 1537.13478398 -1492.16357422 1508.46777344 C-1492.15896704 1503.68479953 -1492.16579805 1498.90208147 -1492.18408203 1494.11914062 C-1492.57141767 1391.69686749 -1482.02043555 1289.03413457 -1363.73419189 890.30114746 C-1362.85179266 888.32439331 -1361.97482851 886.34531312 -1361.09936523 884.36547852 C-1352.4470519 864.8216043 -1343.14599227 845.62456842 -1333.59790039 826.50317383 C-1333.05435913 825.4125061 -1332.51081787 824.32183838 -1331.95080566 823.19812012 C-1324.95550373 809.18267461 -1317.70879123 795.33633426 -1310.12628174 781.62966919 C-1309.00279609 779.5960502 -1307.88627526 777.55894277 -1306.77514648 775.51855469 C-1297.89357511 759.21134742 -1288.49844063 743.29683887 -1278.78149414 727.47924805 C-1276.5289724 723.7938722 -1274.31411311 720.08734499 -1272.10766602 716.37426758 C-1261.39427952 698.35958529 -1249.94879079 680.87000967 -1238.22290039 663.50317383 C-1237.69991364 662.72797394 -1237.17692688 661.95277405 -1236.63809204 661.15408325 C-1229.17918569 650.10881832 -1221.5750922 639.17477874 -1213.84790039 628.31567383 C-1212.90599854 626.98862427 -1212.90599854 626.98862427 -1211.94506836 625.63476562 C-1203.18263953 613.32182823 -1194.05335338 601.29937179 -1184.84790039 589.31567383 C-1183.89712505 588.07368112 -1182.94657443 586.83151632 -1181.99633789 585.58911133 C-1179.62357557 582.49015246 -1177.2385962 579.40082885 -1174.84790039 576.31567383 C-1174.4329834 575.77990723 -1174.01806641 575.24414062 -1173.59057617 574.69213867 C-1163.60403254 561.82017717 -1153.24244052 549.25558241 -1142.68212891 536.85107422 C-1139.83481105 533.50187772 -1137.04791064 530.1100047 -1134.28540039 526.69067383 C-1130.41210767 521.9304733 -1126.34030047 517.38762599 -1122.18774414 512.87036133 C-1120.18955191 510.68869568 -1118.2264115 508.48556074 -1116.28540039 506.25317383 C-1112.95002278 502.41788013 -1109.55481608 498.63896364 -1106.14868164 494.86645508 C-1104.68379929 493.24240046 -1103.22246208 491.61513598 -1101.76586914 489.98364258 C-1092.78234325 479.93342715 -1083.70088963 469.9127127 -1074.00805664 460.53833008 C-1072.25794597 458.73758329 -1070.65005772 456.91491922 -1069.02758789 455.00317383 C-1063.6409469 448.80340074 -1057.75535777 443.07446772 -1051.94189453 437.27929688 C-1049.91527059 435.25803115 -1047.89404492 433.23147809 -1045.87329102 431.2043457 C-1034.53629436 419.86211022 -1034.53629436 419.86211022 -1028.44335938 414.69287109 C-1025.93776454 412.53004623 -1023.66035668 410.18385196 -1021.34790039 407.81567383 C-1017.7586842 404.17793812 -1014.09460566 400.70697399 -1010.20727539 397.38989258 C-1006.85108079 394.43933077 -1003.60607844 391.37366637 -1000.34790039 388.31567383 C-995.26092011 383.55022385 -990.15205947 378.83980951 -984.84790039 374.31567383 C-983.82687229 373.44090111 -982.80605968 372.56587684 -981.78540039 371.69067383 C-980.0174442 370.17488693 -978.24907072 368.65960356 -976.47924805 367.14599609 C-972.66225827 363.8798547 -968.86331115 360.59396862 -965.07495117 357.29467773 C-958.42928638 351.5100172 -951.70166098 345.85351239 -944.84790039 340.31567383 C-943.60003659 339.29801822 -942.35267519 338.27974637 -941.10571289 337.26098633 C-933.04790593 330.68336454 -924.93727612 324.18151228 -916.7331543 317.78735352 C-914.69904155 316.19947063 -912.66991625 314.6053362 -910.64086914 313.01098633 C-899.86492985 304.56266892 -888.91667138 296.37561643 -877.84790039 288.31567383 C-877.11635742 287.78119629 -876.38481445 287.24671875 -875.63110352 286.69604492 C-845.54247793 264.72431945 -814.58114012 243.84524441 -782.84790039 224.31567383 C-781.83308594 223.69063965 -780.81827148 223.06560547 -779.77270508 222.42163086 C-743.65296379 200.22750991 -706.75704458 179.57083157 -668.95788574 160.3885498 C-666.85521597 159.31939362 -664.75500794 158.24555056 -662.65551758 157.17016602 C-643.06869099 147.14299178 -623.25317046 137.83663002 -603.08105469 129.04708862 C-598.73316175 127.15038858 -594.40446876 125.21753844 -590.09008789 123.24536133 C-497.80727286 81.15057232 -398.77448467 51.51896714 -112.53540039 4.12817383 C-111.58506927 4.04917847 -110.63473816 3.97018311 -109.65560913 3.88879395 C-102.3908079 3.29221319 -95.12205928 2.78372677 -87.84790039 2.31567383 C-87.18736538 2.27241848 -86.52683037 2.22916313 -85.84627914 2.18459702 C-57.23415844 0.32157353 -28.66701054 -0.02986411 0 0 Z " fill="#2C89DB" transform="translate(1491.847900390625,-0.315673828125)"/>
<path d="M0 0 C1.05501709 0.1018158 1.05501709 0.1018158 2.13134766 0.20568848 C92.15809977 8.93457402 187.75202751 29.42687306 262 84 C263.01827881 84.73863281 263.01827881 84.73863281 264.05712891 85.4921875 C271.53939446 90.92756455 278.82837945 96.4459293 285.59375 102.76953125 C287.62480785 104.65221637 289.68963216 106.46777006 291.78515625 108.27734375 C295.99377295 111.94922212 299.991305 115.79899374 303.9375 119.75 C304.63697754 120.4502832 305.33645508 121.15056641 306.05712891 121.87207031 C310.64780854 126.51710905 314.91414319 131.24898264 318.9453125 136.390625 C321.1334611 139.16949052 323.4367708 141.82463588 325.75 144.5 C382.71963653 212.81040399 401.61469075 305.01773093 394.05517578 391.89477539 C391.86126451 413.31296747 388.14207203 434.45428138 382.70117188 455.28515625 C382.05737702 457.77784384 381.45100662 460.27576377 380.859375 462.78125 C367.31178022 519.00256301 337.78562405 567.76003131 299 610 C298.48566406 610.56477051 297.97132812 611.12954102 297.44140625 611.71142578 C289.64456669 620.26228995 281.64151713 628.30420294 273 636 C272.10925781 636.82886719 271.21851563 637.65773438 270.30078125 638.51171875 C263.1922298 645.12215272 255.72488558 651.13583826 248 657 C247.1025708 657.68280029 247.1025708 657.68280029 246.18701172 658.37939453 C241.84633091 661.66495959 237.45044703 664.86478991 233 668 C232.37883301 668.43779785 231.75766602 668.8755957 231.11767578 669.32666016 C198.11691442 692.27668719 157.36980244 710.61510364 116.3125 705.3125 C102.87349569 702.86136085 87.31443723 698.08853806 78.375 687.0625 C77.078125 685.02734375 77.078125 685.02734375 76 683 C75.49726563 682.07380859 75.49726563 682.07380859 74.984375 681.12890625 C67.55878642 663.81378379 74.76428141 639.51223149 81.17871094 622.95800781 C86.16068911 610.58269995 91.48810626 598.37458417 97.66943359 586.54931641 C99.38022845 583.27149625 101.07476978 579.9853456 102.76953125 576.69921875 C103.46499484 575.35139372 104.16047031 574.00357481 104.85595703 572.65576172 C105.57064869 571.27051332 106.28532961 569.88525937 107 568.5 C108.0654059 566.43490324 109.13084155 564.36982188 110.19641113 562.30480957 C110.88070831 560.97862533 111.56487373 559.65237309 112.24890137 558.3260498 C113.96592366 554.99796782 115.69095628 551.67429797 117.42578125 548.35546875 C123.69431663 536.24396258 128.81666646 523.60425811 134 511 C134.3290332 510.2059375 134.65806641 509.411875 134.99707031 508.59375 C148.38698553 475.77941988 158.32328063 441.99543472 164 407 C164.16371094 406.05737305 164.32742188 405.11474609 164.49609375 404.14355469 C168.91642386 378.470935 168.41561588 351.62795928 164 326 C163.82890717 324.98876068 163.82890717 324.98876068 163.65435791 323.95709229 C153.65299751 264.89257877 133.59687387 206.19166235 82.8125 169.9375 C27.59982503 131.44763125 -39.83736674 124.77714391 -105 133 C-105.86399414 133.10151367 -106.72798828 133.20302734 -107.61816406 133.30761719 C-177.92543787 141.71616651 -247.28333281 173.64082371 -306 212 C-307.27206299 212.82951172 -307.27206299 212.82951172 -308.56982422 213.67578125 C-325.94473363 225.04308399 -342.82435377 236.97873788 -359 250 C-359.95471191 250.76546143 -359.95471191 250.76546143 -360.92871094 251.54638672 C-374.37411351 262.33748703 -387.4730568 273.4295998 -400.06469727 285.20825195 C-401.58041498 286.61153848 -403.10650087 288.00362775 -404.63647461 289.39135742 C-411.5249347 295.63991376 -418.21210732 302.05451875 -424.7746582 308.64428711 C-426.32584727 310.20089389 -427.88239392 311.75200171 -429.43945312 313.30273438 C-434.29564272 318.15569742 -439.05205834 323.05186821 -443.51733398 328.2722168 C-445.73239769 330.85347908 -448.05666764 333.32359965 -450.375 335.8125 C-454.6687538 340.46038542 -458.7353184 345.24416348 -462.703125 350.17578125 C-464.7255113 352.66249094 -466.79204745 355.10326284 -468.88256836 357.53271484 C-475.36741316 365.0838946 -481.4167504 372.93475202 -487.40332031 380.88427734 C-488.90419486 382.87305087 -490.41522729 384.85359457 -491.9296875 386.83203125 C-497.91899781 394.6905909 -503.66154174 402.70729582 -509.3125 410.8125 C-509.97032471 411.75496582 -510.62814941 412.69743164 -511.3059082 413.66845703 C-515.7023995 420.0129578 -519.88520538 426.47025469 -524 433 C-524.92543456 434.43986312 -525.85241444 435.87873472 -526.78125 437.31640625 C-568.52792526 502.31072795 -600.49986027 573.81234127 -624.12353516 647.27636719 C-625.00413467 650.01284858 -625.89781593 652.74481144 -626.79296875 655.4765625 C-633.15513239 675.02572447 -638.58984507 694.82182808 -643.45898438 714.79199219 C-643.95951729 716.83478086 -644.46911958 718.87494438 -644.984375 720.9140625 C-646.00125205 724.9398954 -647.00354317 728.9690763 -648 733 C-648.20705566 733.83402344 -648.41411133 734.66804688 -648.62744141 735.52734375 C-652.03449535 749.30379971 -655.17347475 763.13314061 -658.1875 777 C-658.35576294 777.76951996 -658.52402588 778.53903992 -658.6973877 779.33187866 C-660.78360116 788.89122321 -662.66449717 798.46227269 -664.32299805 808.10498047 C-664.90693696 811.46457709 -665.52582696 814.81284996 -666.17578125 818.16015625 C-669.80232761 836.91782816 -672.6163652 855.77518608 -675.3671875 874.67724609 C-675.86556446 878.09575444 -676.37973065 881.51147711 -676.90625 884.92578125 C-681.28849191 913.6588902 -683.80090662 942.74756006 -685.83856201 971.73101807 C-685.99379292 973.91276057 -686.15648231 976.09382797 -686.32080078 978.27490234 C-690.35055609 1032.79505164 -689.50323106 1088.55618122 -685 1143 C-684.89461914 1144.30164093 -684.89461914 1144.30164093 -684.78710938 1145.62957764 C-682.07316987 1178.94270943 -677.3678187 1212.19120912 -671 1245 C-670.74504924 1246.35354818 -670.49124773 1247.70731328 -670.23852539 1249.0612793 C-665.02985193 1276.9653698 -659.46001391 1304.87278149 -651 1332 C-650.32714478 1334.35240536 -649.66039519 1336.70656636 -649 1339.0625 C-641.9564769 1363.71483084 -634.0935673 1388.41538683 -624 1412 C-623.59168945 1412.95648437 -623.18337891 1413.91296875 -622.76269531 1414.8984375 C-612.71591684 1438.31361282 -601.86395365 1460.99669242 -589 1483 C-588.49855469 1483.86753906 -587.99710938 1484.73507812 -587.48046875 1485.62890625 C-579.98789738 1498.57780928 -571.77710548 1510.88792627 -563 1523 C-562.5762207 1523.58716797 -562.15244141 1524.17433594 -561.71582031 1524.77929688 C-553.20209855 1536.52286193 -544.02675789 1547.92643274 -534.1953125 1558.59375 C-532.36857095 1560.59601476 -530.59870026 1562.62891702 -528.83203125 1564.68359375 C-524.61329278 1569.51611024 -520.10775213 1574.03890911 -515.5625 1578.5625 C-514.35110352 1579.77969727 -514.35110352 1579.77969727 -513.11523438 1581.02148438 C-508.23997228 1585.88888948 -503.2548194 1590.54585175 -498 1595 C-497.36425049 1595.54245361 -496.72850098 1596.08490723 -496.07348633 1596.64379883 C-436.11885813 1647.47210923 -361.87123675 1678.41640839 -284 1688 C-282.88061035 1688.14131348 -281.7612207 1688.28262695 -280.60791016 1688.42822266 C-277.11521577 1688.86304041 -273.62101482 1689.28027897 -270.125 1689.6875 C-268.594198 1689.86708252 -268.594198 1689.86708252 -267.0324707 1690.05029297 C-180.57991159 1699.47153666 -91.96755924 1684.03973123 85 1593 C85.69609375 1592.52401367 86.3921875 1592.04802734 87.109375 1591.55761719 C100.39372101 1582.44691848 113.26972566 1572.86715558 126 1563 C126.68352539 1562.47245117 127.36705078 1561.94490234 128.07128906 1561.40136719 C135.51077494 1555.65492679 142.76447404 1549.72847708 149.91015625 1543.62109375 C152.77577694 1541.17696666 155.69405522 1538.80304266 158.625 1536.4375 C163.30060655 1532.63303994 167.77204904 1528.64448347 172.19921875 1524.5546875 C174.3511581 1522.59183069 176.52678808 1520.68346638 178.734375 1518.78515625 C183.55065371 1514.58317854 188.05533119 1510.09125143 192.5625 1505.5625 C193.37396484 1504.75490234 194.18542969 1503.94730469 195.02148438 1503.11523438 C199.88967453 1498.23918596 204.52388076 1493.23635892 209 1488 C209.94935982 1486.91694995 210.899828 1485.83487014 211.8515625 1484.75390625 C219.03587216 1476.51726506 225.74416169 1467.98485246 232.30371094 1459.24511719 C233.97949075 1457.02714495 235.67805164 1454.82856013 237.3828125 1452.6328125 C247.97877326 1438.88195752 257.52321105 1424.45846619 267.06365967 1409.96733093 C269.67491796 1406.00119444 272.30252455 1402.04666458 274.94512939 1398.10134888 C279.4284568 1391.40539956 283.80927137 1384.65786143 288.0625 1377.8125 C288.69043457 1376.80477539 289.31836914 1375.79705078 289.96533203 1374.75878906 C296.64689129 1364.00711925 303.20988522 1353.18370528 309.76127625 1342.35246277 C312.25632984 1338.2274591 314.75542814 1334.10493554 317.2578125 1329.984375 C317.60817062 1329.40745407 317.95852875 1328.83053314 318.31950378 1328.23612976 C319.73183897 1325.91072509 321.14436102 1323.58543395 322.55691528 1321.26016235 C326.14759268 1315.3491252 329.73686997 1309.43727517 333.31578064 1303.519104 C340.78087454 1291.17473565 348.25405778 1278.83994785 356.0234375 1266.68359375 C358.25128607 1263.19682194 360.43279716 1259.68396985 362.6015625 1256.16015625 C363.21878174 1255.16677246 363.83600098 1254.17338867 364.47192383 1253.14990234 C365.66312926 1251.23266044 366.84585006 1249.31010977 368.01831055 1247.38134766 C371.86735134 1241.22537698 375.86923552 1235.37692149 383 1233 C390.16315457 1232.31654305 396.31210914 1233.46321381 403 1236 C404.06927734 1236.40025391 404.06927734 1236.40025391 405.16015625 1236.80859375 C411.19957306 1239.42683803 416.04032356 1244.08064712 419 1250 C420.49567456 1258.74376096 420.24303214 1267.7799534 420.25 1276.625 C420.25067474 1277.39866913 420.25134949 1278.17233826 420.25204468 1278.9694519 C420.2333896 1292.5100733 419.2984411 1305.63836611 417 1319 C416.82307617 1320.06009277 416.64615234 1321.12018555 416.46386719 1322.21240234 C413.981763 1336.83281049 410.68403238 1350.93571122 406 1365 C405.64276855 1366.09183594 405.28553711 1367.18367188 404.91748047 1368.30859375 C399.45343419 1384.94443951 393.38632817 1401.12234467 386 1417 C385.52272461 1418.02609375 385.04544922 1419.0521875 384.55371094 1420.109375 C357.00462253 1478.97648247 320.15221103 1532.72454661 278.08300781 1582.1652832 C275.19047838 1585.57001037 272.36160095 1589.01757422 269.5625 1592.5 C265.1854888 1597.88285937 260.50445873 1602.94271342 255.7734375 1608.01171875 C253.63645686 1610.3035841 251.54776652 1612.62758757 249.5 1615 C242.84074762 1622.6875193 235.93136657 1630.19092161 228.66235352 1637.30517578 C227.0778494 1638.92062997 225.62842273 1640.58951736 224.171875 1642.3203125 C219.04517524 1648.21092225 213.47687811 1653.67222108 207.94848633 1659.18188477 C206.06671726 1661.05829475 204.19035262 1662.93998969 202.31445312 1664.82226562 C196.87065568 1670.26876833 191.4375495 1675.65726024 185.56811523 1680.65014648 C183.4298706 1682.49077463 181.46370107 1684.47587736 179.5 1686.5 C176.21145472 1689.82769463 172.83618376 1692.95336441 169.28515625 1695.99609375 C166.93504546 1698.05696014 164.64932695 1700.17504818 162.36523438 1702.30834961 C156.90941776 1707.40293273 151.34934255 1712.26342145 145.5234375 1716.9375 C143.23313064 1718.8094536 141.05167092 1720.74846353 138.875 1722.75 C131.95566723 1728.9565063 124.44476542 1734.44695027 117 1740 C116.26539551 1740.54881836 115.53079102 1741.09763672 114.77392578 1741.66308594 C103.53041834 1750.02421666 91.94764883 1757.68543677 80 1765 C79.3390332 1765.40702148 78.67806641 1765.81404297 77.99707031 1766.23339844 C67.84319124 1772.47429372 57.48140942 1778.32841123 47 1784 C46.15501953 1784.45745605 45.31003906 1784.91491211 44.43945312 1785.38623047 C6.74229352 1805.67666394 -32.53776886 1821.20173181 -73 1835 C-73.66998016 1835.22935242 -74.33996033 1835.45870483 -75.03024292 1835.69500732 C-83.18279812 1838.48011241 -91.35526734 1841.05364606 -99.6875 1843.25 C-100.76273926 1843.53593018 -101.83797852 1843.82186035 -102.94580078 1844.11645508 C-135.44862294 1852.69707243 -167.76036413 1859.89384904 -201 1865 C-202.1873877 1865.18594727 -203.37477539 1865.37189453 -204.59814453 1865.56347656 C-225.24533357 1868.76679943 -245.93960117 1870.47914215 -266.7762146 1871.85183716 C-268.91416462 1871.9942811 -271.05139553 1872.14514604 -273.1887207 1872.29663086 C-284.68664581 1873.07917875 -296.16570377 1873.19954929 -307.6875 1873.1875 C-308.67244446 1873.18722809 -309.65738892 1873.18695618 -310.67218018 1873.18667603 C-327.53722389 1873.16538479 -344.19625235 1872.50087229 -361 1871 C-362.84827393 1870.84724609 -362.84827393 1870.84724609 -364.73388672 1870.69140625 C-419.30832079 1866.17663116 -474.37290869 1855.6559385 -526.24804688 1837.93701172 C-528.93506206 1837.0221107 -531.63014377 1836.13586222 -534.328125 1835.25390625 C-546.71655514 1831.14127537 -558.83271911 1826.3720218 -570.9375 1821.5 C-571.71565063 1821.18884247 -572.49380127 1820.87768494 -573.29553223 1820.55709839 C-583.50390358 1816.46439402 -593.39864193 1811.97968269 -603.17228699 1806.93592834 C-606.3276141 1805.32016041 -609.50943951 1803.75792193 -612.6875 1802.1875 C-646.36278488 1785.35916321 -678.07436307 1765.86865379 -708 1743 C-708.63679688 1742.5148291 -709.27359375 1742.0296582 -709.9296875 1741.52978516 C-721.57256186 1732.62261782 -732.6878212 1723.10073014 -743.5234375 1713.23046875 C-744.90825832 1711.98325631 -746.29917009 1710.74245058 -747.71156311 1709.52655029 C-752.66558469 1705.25762587 -757.35644147 1700.79010336 -761.97265625 1696.16015625 C-762.69940048 1695.43436874 -763.42614471 1694.70858124 -764.1749115 1693.96080017 C-765.69962296 1692.43676444 -767.2230915 1690.91148431 -768.74536133 1689.38500977 C-771.05633891 1687.06867537 -773.37260771 1684.75772922 -775.68945312 1682.44726562 C-777.1800082 1680.95604966 -778.670253 1679.46452347 -780.16015625 1677.97265625 C-780.84263931 1677.29219742 -781.52512238 1676.61173859 -782.22828674 1675.91065979 C-786.68358851 1671.43389595 -790.89070279 1666.79514059 -795 1662 C-795.9499802 1660.9057804 -796.90040682 1659.81194797 -797.8515625 1658.71875 C-810.58808028 1643.97156182 -822.62945741 1628.82804553 -834 1613 C-834.58958496 1612.17951172 -835.17916992 1611.35902344 -835.78662109 1610.51367188 C-844.30333888 1598.61213454 -852.35619516 1586.47932028 -860 1574 C-860.50273438 1573.17999512 -861.00546875 1572.35999023 -861.5234375 1571.51513672 C-889.11316117 1526.35797161 -913.09270579 1478.14239561 -930.25 1428 C-930.62350586 1426.91549561 -930.99701172 1425.83099121 -931.38183594 1424.71362305 C-935.69887011 1412.09192202 -939.75106365 1399.38542559 -943.80688477 1386.67797852 C-944.62173874 1384.16605401 -945.44856359 1381.66293278 -946.30053711 1379.16381836 C-948.91569384 1371.48893231 -951.19487951 1363.82832958 -953.0625 1355.9375 C-954.55118764 1349.72837984 -956.10795304 1343.56956958 -957.91796875 1337.4453125 C-960.44269155 1328.69935706 -962.35839992 1319.83867335 -964.25 1310.9375 C-964.44153656 1310.04125916 -964.63307312 1309.14501831 -964.83041382 1308.22161865 C-971.39175267 1277.41223586 -977.21764661 1246.28142964 -981 1215 C-981.09518921 1214.21975464 -981.19037842 1213.43950928 -981.28845215 1212.63562012 C-984.06463213 1189.76759339 -986.29460723 1166.87384976 -987.6328125 1143.875 C-987.69714666 1142.77727264 -987.76148083 1141.67954529 -987.82776451 1140.54855347 C-989.27831917 1115.1864719 -989.42279337 1089.85944321 -989.3225708 1064.46313477 C-989.3090387 1059.80973182 -989.31443154 1055.15642275 -989.31943893 1050.50300884 C-989.34760352 1015.75540414 -988.17955492 981.30374387 -984.8359375 946.70703125 C-984.69744874 945.26905668 -984.55910773 943.83106787 -984.42089844 942.39306641 C-984.35140991 941.67217834 -984.28192139 940.95129028 -984.21032715 940.20855713 C-983.99721108 937.97071469 -983.79103871 935.73233182 -983.58691406 933.49365234 C-981.76833483 913.59928089 -979.39850723 893.82960462 -976.5 874.0625 C-976.35647095 873.08295349 -976.21294189 872.10340698 -976.06506348 871.09417725 C-972.74123429 848.54464027 -969.00850618 826.11921576 -964.3125 803.8125 C-964.09823364 802.78894409 -963.88396729 801.76538818 -963.66320801 800.71081543 C-958.4502014 775.85846704 -953.07230413 750.93322452 -945.4453125 726.69140625 C-944.05513659 722.25748679 -942.82458573 717.78687285 -941.60131836 713.30444336 C-937.24787793 697.36513335 -932.17870589 681.6865457 -927 666 C-926.64212402 664.91025879 -926.28424805 663.82051758 -925.91552734 662.69775391 C-924.06142585 657.0826511 -922.14057018 651.51236514 -920 646 C-919.74943848 645.35240723 -919.49887695 644.70481445 -919.24072266 644.03759766 C-918.12791698 641.17203638 -917.00706681 638.30964077 -915.88671875 635.44702148 C-914.32300298 631.43960253 -912.77967046 627.42730787 -911.29296875 623.390625 C-889.11342237 563.41683487 -859.52891555 506.07191266 -826.04675293 451.70031738 C-825.02636464 450.04282601 -824.00778699 448.38422039 -822.98925781 446.72558594 C-814.68488709 433.22318647 -806.09507588 419.98267327 -797 407 C-796.50435547 406.28827637 -796.00871094 405.57655273 -795.49804688 404.84326172 C-776.417598 377.4481113 -756.08194643 351.00713231 -734.39013672 325.62841797 C-732.93465989 323.92346004 -731.48473947 322.2138767 -730.03515625 320.50390625 C-724.37731403 313.84654838 -718.61592858 307.31388284 -712.66796875 300.9140625 C-710.60547588 298.66132505 -708.58335646 296.38886594 -706.578125 294.0859375 C-695.13339717 280.96791366 -682.79335764 268.68933222 -670.5 256.375 C-669.79650421 255.66891602 -669.09300842 254.96283203 -668.36819458 254.23535156 C-666.32133702 252.18256471 -664.27070574 250.13362702 -662.21875 248.0859375 C-661.30681129 247.17103043 -661.30681129 247.17103043 -660.37644958 246.23764038 C-656.65845609 242.53926062 -652.8219121 239.03464326 -648.8380127 235.62393188 C-646.98058169 233.98284342 -645.23481401 232.26949593 -643.5 230.5 C-640.51127663 227.46405075 -637.38293521 224.65491341 -634.15625 221.875 C-631.80037042 219.82640906 -629.4949254 217.72796998 -627.1875 215.625 C-622.91689849 211.76977614 -618.51226331 208.12417485 -614.0390625 204.5078125 C-610.52942052 201.6116812 -607.10981403 198.62319421 -603.6875 195.625 C-597.77455935 190.46062761 -591.7178711 185.54028482 -585.51171875 180.734375 C-582.52455772 178.42055286 -579.58364945 176.05439528 -576.64916992 173.67431641 C-568.08695861 166.74305668 -559.2660829 160.19423135 -550.35693359 153.71728516 C-548.14432425 152.10515608 -545.94031962 150.48199185 -543.73828125 148.85546875 C-500.13595427 116.80058233 -452.65472729 89.51774894 -403 68 C-402.27458008 67.68289063 -401.54916016 67.36578125 -400.80175781 67.0390625 C-390.69206376 62.63285636 -380.45175628 58.5567982 -370.1781311 54.5506897 C-368.83254881 54.0259332 -367.48745718 53.49991642 -366.14291382 52.97250366 C-358.44789793 49.95925596 -350.73601662 47.19038347 -342.80029297 44.86816406 C-340.12983784 44.04025313 -337.57960393 43.07474318 -335 42 C-329.7934321 39.85952209 -324.49607646 38.20805085 -319.09765625 36.62011719 C-316.74954529 35.92595962 -314.40627798 35.21645857 -312.0625 34.5078125 C-294.17889876 29.14842855 -276.12951393 24.44607836 -258 20 C-257.34553894 19.83908875 -256.69107788 19.67817749 -256.01678467 19.51239014 C-218.74414498 10.3898832 -180.39158971 4.70485774 -142.19610596 1.20574951 C-139.98095394 0.99821561 -137.76761467 0.77652354 -135.55419922 0.55126953 C-91.09595406 -3.92434642 -44.49030173 -4.35432081 0 0 Z " fill="#FEFEFE" transform="translate(1750,512)"/>
</svg>
