<?xml version="1.0" encoding="UTF-8"?>
<svg version="1.1" xmlns="http://www.w3.org/2000/svg" width="400" height="400">
<path d="M0 0 C8.88289753 8.03579889 17.28160216 16.56094894 25.73554993 25.04241943 C27.43541845 26.74415693 29.13551079 28.4456709 30.83581543 30.14697266 C35.28626597 34.60121836 39.73370609 39.05845783 44.18049622 43.51635742 C48.70809517 48.05420624 53.23854081 52.58921103 57.76875305 57.12445068 C65.07890254 64.44336498 72.38731521 71.76400814 79.69348145 79.0868988 C85.83146051 85.23873106 91.98048556 91.37927682 98.13838196 97.51116943 C106.23683653 105.57692721 114.33022453 113.6477532 122.4206562 121.72155762 C127.31279382 126.60336775 132.20680895 131.48326834 137.10517883 136.35882568 C141.84873351 141.08030107 146.58703104 145.80699337 151.322155 150.53692627 C153.12653227 152.33760859 154.93266877 154.13652984 156.74058914 155.93365479 C159.26587642 158.44444801 161.78485954 160.96140638 164.30244446 163.47991943 C165.05056396 164.22084839 165.79868347 164.96177734 166.56947327 165.72515869 C173.02722568 172.20875992 176.01261014 177.00726958 176.34101868 186.24554443 C176.00150681 203.90016136 159.36012979 215.38880993 147.75117493 227.00335693 C146.1769197 228.58083017 144.60273778 230.15837656 143.02862549 231.73599243 C139.75000142 235.02056872 136.46935343 238.30310798 133.18745422 241.58441162 C128.97334692 245.79841648 124.76620897 250.01930799 120.5607233 254.24191475 C117.32233195 257.49138297 114.07944819 260.73633834 110.83524895 263.98000717 C109.28063445 265.53580441 107.72764739 267.09322957 106.17630196 268.65228653 C104.01982861 270.81849026 101.85719367 272.97834639 99.69282532 275.13665771 C99.05025284 275.7848497 98.40768036 276.43304169 97.74563599 277.10087585 C93.31934672 281.49554443 93.31934672 281.49554443 91.09101868 281.49554443 C91.09101868 282.15554443 91.09101868 282.81554443 91.09101868 283.49554443 C90.43101868 283.49554443 89.77101868 283.49554443 89.09101868 283.49554443 C89.09101868 284.15554443 89.09101868 284.81554443 89.09101868 285.49554443 C87.21601868 287.62054443 87.21601868 287.62054443 85.09101868 289.49554443 C84.43101868 289.49554443 83.77101868 289.49554443 83.09101868 289.49554443 C83.09101868 290.15554443 83.09101868 290.81554443 83.09101868 291.49554443 C82.43101868 291.49554443 81.77101868 291.49554443 81.09101868 291.49554443 C80.82451602 292.08667023 80.55801336 292.67779602 80.28343487 293.28683472 C79.06511381 295.54352796 77.8162921 297.02422832 76.01235962 298.8348999 C75.06419624 299.79369049 75.06419624 299.79369049 74.09687805 300.77185059 C73.40440979 301.46184143 72.71194153 302.15183228 71.99848938 302.86273193 C70.90301033 303.96587738 70.90301033 303.96587738 69.78540039 305.09130859 C67.36769454 307.52292297 64.94262009 309.94702678 62.51679993 312.37054443 C60.83226798 314.05896327 59.14796017 315.74760574 57.46386719 317.4364624 C53.93063759 320.97715742 50.39355204 324.51394658 46.85395813 328.04827881 C42.32392177 332.57252734 37.80533509 337.10802053 33.28982258 341.64675903 C29.81287491 345.13845871 26.32900326 348.62318524 22.84311485 352.10595703 C21.17465844 353.77492615 19.50855835 355.44625439 17.84488869 357.11999512 C15.51388575 359.46336969 13.17349286 361.79695774 10.83052063 364.12835693 C10.14817352 364.81834778 9.46582642 365.50833862 8.76280212 366.21923828 C1.94157557 372.96642333 -4.06768285 376.43390858 -13.78398132 376.68304443 C-30.66030677 376.33456574 -42.35238546 359.18626299 -53.55351257 347.94866943 C-55.2533811 346.24693193 -56.95347343 344.54541796 -58.65377808 342.84411621 C-63.10422861 338.38987051 -67.55166874 333.93263104 -71.99845886 329.47473145 C-76.52605781 324.93688263 -81.05650346 320.40187784 -85.5867157 315.86663818 C-92.89686518 308.54772389 -100.20527786 301.22708073 -107.51144409 293.90419006 C-113.64942315 287.75235781 -119.79844821 281.61181204 -125.9563446 275.47991943 C-134.05479918 267.41416166 -142.14818718 259.34333567 -150.23861885 251.26953125 C-155.13075647 246.38772112 -160.0247716 241.50782053 -164.92314148 236.63226318 C-169.66669615 231.91078779 -174.40499369 227.1840955 -179.14011765 222.4541626 C-180.94449492 220.65348028 -182.75063142 218.85455903 -184.55855179 217.05743408 C-187.08383907 214.54664086 -189.60282219 212.02968248 -192.1204071 209.51116943 C-192.86852661 208.77024048 -193.61664612 208.02931152 -194.38743591 207.26593018 C-200.84518833 200.78232895 -203.83057279 195.98381929 -204.15898132 186.74554443 C-203.81946946 169.0909275 -187.17809244 157.60227894 -175.56913757 145.98773193 C-173.99488234 144.4102587 -172.42070042 142.83271231 -170.84658813 141.25509644 C-167.56796407 137.97052015 -164.28731608 134.68798089 -161.00541687 131.40667725 C-156.79130957 127.19267239 -152.58417162 122.97178088 -148.37868595 118.74917412 C-145.14029459 115.4997059 -141.89741084 112.25475052 -138.65321159 109.0110817 C-137.0985971 107.45528446 -135.54561004 105.8978593 -133.9942646 104.33880234 C-131.83779126 102.17259861 -129.67515632 100.01274247 -127.51078796 97.85443115 C-126.86821548 97.20623917 -126.22564301 96.55804718 -125.56359863 95.89021301 C-121.13730936 91.49554443 -121.13730936 91.49554443 -118.90898132 91.49554443 C-118.90898132 90.83554443 -118.90898132 90.17554443 -118.90898132 89.49554443 C-118.24898132 89.49554443 -117.58898132 89.49554443 -116.90898132 89.49554443 C-116.90898132 88.83554443 -116.90898132 88.17554443 -116.90898132 87.49554443 C-115.03398132 85.37054443 -115.03398132 85.37054443 -112.90898132 83.49554443 C-112.24898132 83.49554443 -111.58898132 83.49554443 -110.90898132 83.49554443 C-110.90898132 82.83554443 -110.90898132 82.17554443 -110.90898132 81.49554443 C-110.24898132 81.49554443 -109.58898132 81.49554443 -108.90898132 81.49554443 C-108.68009216 80.94213379 -108.451203 80.38872314 -108.21537781 79.81854248 C-106.53734401 76.83470926 -104.42443699 74.75148893 -102.00663757 72.32757568 C-101.5282695 71.84729416 -101.04990143 71.36701263 -100.55703735 70.87217712 C-99.54830981 69.86209298 -98.53706969 68.85451254 -97.52348328 67.8493042 C-95.97317823 66.3097296 -94.4338554 64.75975106 -92.89530945 63.20843506 C-91.91222632 62.22667316 -90.92852317 61.24553164 -89.94413757 60.26507568 C-89.05089783 59.3740918 -88.15765808 58.48310791 -87.23735046 57.56512451 C-84.90898132 55.49554443 -84.90898132 55.49554443 -81.90898132 54.49554443 C-76.27055012 60.01824149 -70.64566099 65.55423089 -65.03765774 71.10780716 C-62.43333525 73.68601033 -59.82455695 76.25934787 -57.2051239 78.82220459 C-54.67845217 81.29463998 -52.1641113 83.77901152 -49.65793037 86.27220917 C-48.23092527 87.68544802 -46.79135985 89.08596724 -45.35171509 90.48632812 C-44.49074722 91.34691833 -43.62977936 92.20750854 -42.74272156 93.09417725 C-41.59355507 94.22668915 -41.59355507 94.22668915 -40.4211731 95.38208008 C-38.90898132 97.49554443 -38.90898132 97.49554443 -39.15228271 99.54724121 C-39.40199326 100.19018127 -39.6517038 100.83312134 -39.90898132 101.49554443 C-40.7832688 112.9237307 -40.13662685 120.30491158 -32.53398132 129.30804443 C-30.43173558 131.05991589 -28.60433731 132.31441468 -26.24491882 133.63226318 C-25.14405945 134.247146 -24.04320007 134.86202881 -22.90898132 135.49554443 C-22.67728927 149.21223961 -22.49960273 162.9284695 -22.3908596 176.64672279 C-22.3386674 183.01679208 -22.26787956 189.38552292 -22.15458679 195.75482178 C-22.04593487 201.90167762 -21.98614043 208.0472463 -21.96020889 214.19498825 C-21.94173001 216.54033047 -21.90564271 218.8856021 -21.85168076 221.23039627 C-21.77906438 224.5164531 -21.76908912 227.79719336 -21.77372742 231.08392334 C-21.73777466 232.05352997 -21.7018219 233.0231366 -21.66477966 234.02212524 C-21.70790789 236.84621869 -21.8390466 238.87654821 -22.90898132 241.49554443 C-25.32910537 243.54206534 -27.69187659 244.90609135 -30.54128456 246.28510094 C-33.63082363 247.86457367 -34.90141965 249.6897826 -36.47148132 252.74554443 C-36.92652039 253.59632568 -37.38155945 254.44710693 -37.85038757 255.32366943 C-38.19972351 256.04038818 -38.54905945 256.75710693 -38.90898132 257.49554443 C-39.23898132 258.15554443 -39.56898132 258.81554443 -39.90898132 259.49554443 C-40.83406482 270.92693333 -40.04573505 278.24814125 -32.59648132 287.30804443 C-25.14216442 293.37551168 -17.4173999 295.39162577 -7.90898132 294.49554443 C-0.15057998 292.45619322 5.395126 288.94029619 10.34101868 282.62054443 C14.33413125 275.48998627 15.23065415 268.03346055 13.59101868 260.06585693 C12.03811811 254.82481751 9.72741149 251.52506079 6.09101868 247.49554443 C6.09101868 246.83554443 6.09101868 246.17554443 6.09101868 245.49554443 C5.49289368 245.37179443 4.89476868 245.24804443 4.27851868 245.12054443 C2.09101868 244.49554443 2.09101868 244.49554443 -0.90898132 242.49554443 C-1.27812481 240.60962486 -1.27812481 240.60962486 -1.26974487 238.26882935 C-1.27593086 236.93947609 -1.27593086 236.93947609 -1.28224182 235.58326721 C-1.27145599 234.60863022 -1.26067017 233.63399323 -1.2495575 232.62982178 C-1.24999557 231.60540482 -1.25043365 230.58098785 -1.25088501 229.52552795 C-1.24878899 226.12732113 -1.22541931 222.72960295 -1.20195007 219.33148193 C-1.19635702 216.98021718 -1.19208555 214.62894894 -1.18908691 212.27767944 C-1.1776153 206.07975668 -1.14812809 199.88204377 -1.11497498 193.6842041 C-1.08432403 187.36353393 -1.07059223 181.04282995 -1.0554657 174.72210693 C-1.02326069 162.3131604 -0.97203633 149.90436985 -0.90898132 137.49554443 C2.2567731 139.00775685 4.44733191 140.58645901 6.95747375 143.05560303 C7.70116714 143.78330902 8.44486053 144.51101501 9.21109009 145.26077271 C10.00291183 146.04723175 10.79473358 146.8336908 11.61054993 147.64398193 C12.42851547 148.45291901 13.24648102 149.26185608 14.0892334 150.0953064 C15.8141518 151.80572795 17.53628105 153.51896624 19.2558136 155.23480225 C21.89877675 157.86582393 24.55981094 160.47762198 27.22187805 163.08929443 C28.89424777 164.75220545 30.56551057 166.41623058 32.23554993 168.08148193 C33.43846428 169.25509781 33.43846428 169.25509781 34.66567993 170.4524231 C35.39361252 171.18643341 36.1215451 171.92044373 36.87153625 172.67669678 C37.51899307 173.31908295 38.16644989 173.96146912 38.83352661 174.62332153 C40.09101868 176.49554443 40.09101868 176.49554443 39.80932617 178.51083374 C39.45376396 179.49326553 39.45376396 179.49326553 39.09101868 180.49554443 C38.37591657 189.84295056 37.94692663 197.8324963 44.09101868 205.49554443 C44.81289368 206.40304443 45.53476868 207.31054443 46.27851868 208.24554443 C52.55948989 213.27032141 59.87037995 217.04262722 68.09101868 216.49554443 C70.50126184 215.90383171 72.75513252 215.15348501 75.07148743 214.26507568 C77.37598184 213.38696079 79.65914651 212.88778188 82.09101868 212.49554443 C82.09101868 211.83554443 82.09101868 211.17554443 82.09101868 210.49554443 C83.57843239 209.27255983 85.0668988 208.05080264 86.56367493 206.83929443 C91.86917957 202.17153587 92.87190417 195.25638719 93.40351868 188.55804443 C93.1938354 181.44279204 90.4579113 175.05340777 86.09101868 169.49554443 C84.77543165 168.47231008 83.44724113 167.46427476 82.09101868 166.49554443 C82.09101868 165.83554443 82.09101868 165.17554443 82.09101868 164.49554443 C72.27374224 160.93031155 72.27374224 160.93031155 62.09288025 161.00326538 C59.55843385 161.64242224 57.69529876 161.82458068 55.09101868 161.49554443 C51.18590511 159.07219911 48.16670521 155.87774576 44.98945618 152.58148193 C44.06758514 151.65969147 43.14571411 150.737901 42.19590759 149.78817749 C40.25208618 147.84105821 38.32639174 145.87812906 36.41279602 143.90130615 C33.9593728 141.36829921 31.47190433 138.87235214 28.97093773 136.38637352 C26.58588612 134.00893265 24.22592037 131.60736077 21.86445618 129.20648193 C20.96882965 128.31045258 20.07320312 127.41442322 19.1504364 126.49124146 C18.33853851 125.64751984 17.52664062 124.80379822 16.69013977 123.93450928 C15.96893951 123.19647064 15.24773926 122.45843201 14.50468445 121.69802856 C13.09101868 119.49554443 13.09101868 119.49554443 13.3533783 116.86557007 C13.59679962 116.08346161 13.84022095 115.30135315 14.09101868 114.49554443 C14.82278586 105.99578712 13.76106142 98.44628614 8.27851868 91.68304443 C3.57314662 86.67634313 -1.18289603 83.96916101 -7.90898132 82.49554443 C-10.26530286 82.86336624 -12.61810456 83.25420598 -14.96757507 83.66351318 C-20.93752448 84.0768143 -24.53887807 82.39253669 -29.15556335 78.64642334 C-34.55306521 73.79897849 -39.56641419 68.595269 -44.5355072 63.31738281 C-46.45961077 61.29497634 -48.42447854 59.3148673 -50.39174747 57.33456135 C-52.74035324 54.96469054 -55.06083682 52.56845097 -57.38163757 50.17132568 C-58.25530472 49.27843338 -59.12897186 48.38554108 -60.02911377 47.46559143 C-60.81841782 46.6250975 -61.60772186 45.78460358 -62.42094421 44.91864014 C-63.12103104 44.18361771 -63.82111786 43.44859528 -64.54241943 42.69129944 C-65.90898132 40.49554443 -65.90898132 40.49554443 -65.82220459 37.94567871 C-64.82198214 35.2621298 -63.80162607 33.88705716 -61.78544617 31.87030029 C-61.12740997 31.20288315 -60.46937378 30.535466 -59.79139709 29.8478241 C-59.07480927 29.14247025 -58.35822144 28.43711639 -57.61991882 27.71038818 C-56.51494553 26.60323204 -56.51494553 26.60323204 -55.38764954 25.47370911 C-53.82715063 23.91486928 -52.26169621 22.3609768 -50.69169617 20.81170654 C-48.30156778 18.45041868 -45.93052728 16.07116694 -43.56132507 13.68890381 C-42.04029814 12.17411807 -40.51819661 10.66041043 -38.99491882 9.14788818 C-38.29047638 8.4405101 -37.58603394 7.73313202 -36.86024475 7.00431824 C-27.67790533 -2.00596928 -11.83300919 -9.32551635 0 0 Z " fill="#F05032" transform="translate(213.9089813232422,13.50445556640625)"/>
</svg>
