<?xml version="1.0" encoding="UTF-8"?>
<svg version="1.1" xmlns="http://www.w3.org/2000/svg" width="400" height="400">
<path d="M0 0 C6.82741016 5.81202962 13.12566978 12.03002775 19.125 18.6875 C31.19621994 31.97468172 44.79966357 40.95235776 63.1171875 42.21484375 C79.5774632 42.69896951 93.00187131 36.25018634 105.28515625 25.61328125 C108.98415989 22.05265761 112.09916463 18.22868254 115 14 C117.25268403 20.75805209 111.9279453 30.21883307 108.90625 36.453125 C104.97478777 44.2212228 100.77747102 51.44382636 95 58 C94.32453125 58.81726563 93.6490625 59.63453125 92.953125 60.4765625 C78.69614117 77.21082366 58.61243204 85.73957488 37 88 C16.90315906 89.07855266 -1.51126061 87.31145165 -20 79 C-21.01449219 78.54753906 -22.02898437 78.09507812 -23.07421875 77.62890625 C-35.17119349 71.91343419 -46.82937213 63.70633996 -55 53 C-56.61838719 51.28641357 -58.29671681 49.6292274 -60 48 C-60.65355469 47.36320312 -61.30710937 46.72640625 -61.98046875 46.0703125 C-75.90741281 32.95985594 -92.15035795 21.50129203 -111.984375 21.79296875 C-125.08356979 22.6922658 -138.20978419 28.47924306 -147.546875 37.71484375 C-149 39 -149 39 -151 39 C-151.26554687 39.57234375 -151.53109375 40.1446875 -151.8046875 40.734375 C-153.05676891 43.1076012 -154.4936352 45.12213286 -156.125 47.25 C-156.66382813 47.95640625 -157.20265625 48.6628125 -157.7578125 49.390625 C-158.37269531 50.18726563 -158.37269531 50.18726563 -159 51 C-161.60203532 43.19389404 -155.39613147 31.35164118 -151.88452148 24.28759766 C-140.56049403 2.70200798 -123.19086004 -11.62491392 -100 -19 C-65.38103492 -28.54317492 -28.16334548 -22.8753738 0 0 Z " fill="#06B6D5" transform="translate(176,223)"/>
<path d="M0 0 C30.1316273 -0.8312173 55.98239451 10.05342962 77.8503418 30.47583008 C83.24375583 35.58398062 88.48848175 40.83514555 93.703125 46.125 C95.36855389 47.79290352 97.0350849 49.4597079 98.703125 51.125 C99.45916016 51.91197266 99.45916016 51.91197266 100.23046875 52.71484375 C110.67234795 62.69392498 125.94382315 65.65028982 139.85546875 65.44140625 C145.85785718 64.94780883 151.12307045 63.32630592 156.703125 61.125 C157.55261719 60.80917969 158.40210938 60.49335938 159.27734375 60.16796875 C169.58760568 55.7350542 177.76617572 46.7288687 184.703125 38.125 C186.46774884 42.25295935 184.74706587 45.64594682 183.203125 49.5625 C182.92903809 50.27043701 182.65495117 50.97837402 182.37255859 51.70776367 C173.76910881 73.3475531 158.79892288 94.11824136 136.98828125 103.83984375 C109.68527875 115.21694535 78.55472475 113.88854758 51.36328125 103.140625 C35.71297956 96.60327962 24.54956836 86.02161082 12.73413086 74.14672852 C8.54086958 69.93858737 4.37013484 65.8130349 -0.296875 62.125 C-1.81474609 60.92423828 -1.81474609 60.92423828 -3.36328125 59.69921875 C-16.76723802 49.44947131 -31.14066831 43.43867681 -48.296875 45.625 C-63.90570112 48.70768889 -77.44088034 58.71377172 -86.80078125 71.21875 C-87.29449219 71.8478125 -87.78820312 72.476875 -88.296875 73.125 C-88.626875 73.125 -88.956875 73.125 -89.296875 73.125 C-88.61222405 53.61244781 -75.68203418 34.75892536 -62.14453125 21.609375 C-44.53865586 6.24951663 -22.87437636 1.24486402 0 0 Z " fill="#06B5D5" transform="translate(197.296875,89.875)"/>
</svg>
